<svg width="80" height="80" viewBox="0 0 80 80" fill="none" xmlns="http://www.w3.org/2000/svg">
<g clip-path="url(#clip0_2_803)">
<path d="M79.9935 26.2911C79.8792 19.7372 76.9843 13.2963 71.8429 8.15473C66.7012 3.01333 60.2604 0.118483 53.7068 0.00363899C46.6812 -0.119017 39.921 2.86114 34.1587 8.62317C28.8563 13.926 23.9876 21.9171 21.1345 29.9988C18.1142 38.5546 17.8307 45.8888 20.2907 50.8621L12.0268 59.126C10.7768 58.3135 9.3176 57.8777 7.79166 57.8777C5.71025 57.8777 3.75338 58.6882 2.2815 60.16C-0.757246 63.1988 -0.757246 68.1432 2.2815 71.1818C3.46244 72.3627 4.99494 73.1169 6.64166 73.3563C6.88104 75.0029 7.63525 76.5355 8.81604 77.7166C10.2885 79.1891 12.2457 80 14.327 80C16.4082 80 18.3654 79.1891 19.8379 77.7166C22.4806 75.0739 22.8246 70.9905 20.8706 67.9724L29.1342 59.7075C31.3643 60.8105 34.0671 61.3636 37.1449 61.3636C40.9303 61.3636 45.2796 60.5296 49.9985 58.8636C58.0806 56.0105 66.0715 51.1416 71.3746 45.8393C77.1362 40.0771 80.1165 33.3175 79.9935 26.2911ZM17.529 66.6963C16.8915 67.3338 16.8915 68.3677 17.529 69.0052C19.2942 70.7704 19.2942 73.6425 17.529 75.4077C16.6734 76.2633 15.5362 76.7347 14.3271 76.7347C13.1181 76.7347 11.9807 76.2633 11.1251 75.4077C10.4762 74.7589 10.0584 73.9488 9.89838 73.0586C11.0873 72.6319 12.4382 71.7946 13.2035 70.3149C13.6178 69.514 13.3042 68.5289 12.5031 68.1147C11.702 67.7005 10.7173 68.0139 10.3029 68.8152C9.7415 69.9011 8.2701 70.1369 8.06994 70.1644C6.74041 70.2468 5.50541 69.7883 4.59025 68.8733C2.82479 67.1079 2.82479 64.235 4.59025 62.4693C5.44525 61.6143 6.58213 61.1433 7.79135 61.1433C9.00057 61.1433 10.1376 61.6141 10.9924 62.4693C11.2985 62.7754 11.7138 62.9474 12.1468 62.9474C12.5798 62.9474 12.9949 62.7754 13.3012 62.4693L22.3162 53.4543L26.5423 57.6813L17.529 66.6963ZM69.066 43.5302C64.1649 48.4304 56.4424 53.1258 48.9118 55.7844C40.8528 58.6296 33.9315 58.8494 29.8767 56.3975L23.6006 50.1199C21.1485 46.0655 21.3684 39.1446 24.2134 31.0861C26.872 23.5557 31.5674 15.8329 36.4676 10.9322C46.4967 0.903015 59.7851 0.714889 69.5342 10.4638C79.2826 20.2122 79.0943 33.5007 69.066 43.5302Z" fill="#424242"/>
<path d="M40.863 15.3957C40.2253 14.7581 39.1919 14.7581 38.5541 15.3957L38.5406 15.4092C37.9031 16.0467 37.9031 17.0806 38.5406 17.7182C38.8595 18.0371 39.2773 18.1963 39.695 18.1963C40.1128 18.1963 40.5306 18.037 40.8494 17.7182L40.8628 17.7048C41.5006 17.0673 41.5006 16.0335 40.863 15.3957Z" fill="#424242"/>
<path d="M65.9896 14.0087C62.9804 10.9997 59.2988 9.16514 55.3432 8.70358C51.2446 8.22576 47.0295 9.25936 43.154 11.6936C42.3904 12.1733 42.1604 13.1809 42.6401 13.9445C43.1198 14.7081 44.1271 14.9381 44.891 14.4586C51.3052 10.4295 58.5052 11.142 63.6809 16.3175C63.9998 16.6364 64.4176 16.7956 64.8352 16.7956C65.2529 16.7956 65.6709 16.6361 65.9896 16.3175C66.6271 15.6801 66.6271 14.6462 65.9896 14.0087Z" fill="#424242"/>
<path d="M37.0129 19.569C36.2848 19.0372 35.2634 19.1956 34.7314 19.9236C33.1471 22.0909 31.6525 24.5411 30.4089 27.0089C30.0031 27.814 30.3271 28.7957 31.1323 29.2015C31.3679 29.3204 31.6187 29.3765 31.8657 29.3765C32.4628 29.3765 33.0381 29.0478 33.325 28.4782C34.4893 26.1675 35.887 23.8754 37.3675 21.8504C37.8993 21.1225 37.7407 20.1011 37.0129 19.569Z" fill="#424242"/>
</g>
<defs>
<clipPath id="clip0_2_803">
<rect width="80" height="80" fill="white"/>
</clipPath>
</defs>
</svg>
