<svg width="80" height="80" viewBox="0 0 80 80" fill="none" xmlns="http://www.w3.org/2000/svg">
<g clip-path="url(#clip0_2_856)">
<path d="M59.033 7.95605C51.239 7.95605 43.9772 17.3117 40.2986 31.9033C34.5551 30.4472 28.3402 29.6461 22.332 29.6461C15.4549 29.6461 9.66507 31.964 5.58879 36.3468C1.98536 40.2236 0 45.4205 0 50.9775C0 60.8782 6.55906 71.5324 20.9627 71.5324C21.1695 71.5324 21.3748 71.5439 21.5787 71.5555C21.8317 71.5685 22.0833 71.5815 22.332 71.5815C30.4441 71.5815 38.935 70.1269 46.1274 67.5588C49.9015 70.4956 54.6415 72.0443 59.4277 72.0443C62.5395 72.0443 65.6658 71.3965 68.5462 70.0676C75.795 66.7215 79.9523 59.8024 79.9523 51.0888C79.9523 50.882 79.9638 50.6767 79.9754 50.4728C79.9884 50.2198 80.0014 49.9682 80.0014 49.7195C80 29.9656 71.3891 7.95605 59.033 7.95605ZM21.7305 68.6679C21.476 68.6534 21.2186 68.6404 20.9627 68.6404C8.54731 68.6404 2.892 59.4843 2.892 50.9775C2.892 46.1522 4.60262 41.6551 7.70718 38.3163C11.2224 34.5364 16.2791 32.5381 22.332 32.5381C28.518 32.5381 34.597 33.3811 40.0455 34.8199L40.9551 35.0729C42.4213 35.4807 43.8211 35.9304 45.1572 36.4105C45.3972 36.4972 45.6329 36.5869 45.8686 36.6765C46.1751 36.7922 46.4774 36.9093 46.7767 37.0279C47.1411 37.1739 47.5055 37.3185 47.8612 37.4704C47.8843 37.4805 47.9075 37.4906 47.932 37.5007C52.4971 39.4543 56.1815 41.859 58.5009 44.4835C58.5833 44.5775 58.67 44.6715 58.7496 44.7669C58.9043 44.9505 59.0489 45.1356 59.1906 45.3222C59.3106 45.4812 59.4249 45.6417 59.5347 45.8022C59.6389 45.9526 59.7459 46.1045 59.8399 46.2563C60.0322 46.5672 60.21 46.8795 60.3633 47.1933C60.4023 47.2728 60.4298 47.3523 60.466 47.4319C60.5845 47.6936 60.6915 47.9553 60.7812 48.2185C60.8188 48.3284 60.8506 48.4397 60.8839 48.5496C60.9562 48.794 61.0154 49.0384 61.0617 49.2842C61.082 49.3869 61.1037 49.4881 61.1196 49.5908C61.1702 49.932 61.2034 50.2733 61.2034 50.6145C61.2034 50.9196 61.1803 51.2247 61.1398 51.5313C61.1253 51.6426 61.0979 51.7525 61.0776 51.8639C61.0429 52.0547 61.0082 52.2456 60.9591 52.4379C60.9215 52.584 60.8708 52.7286 60.8246 52.8732C60.7754 53.0236 60.7277 53.174 60.6699 53.3258C60.6019 53.4993 60.5253 53.6728 60.4457 53.8449C60.3937 53.9591 60.3402 54.0719 60.2838 54.1862C60.1797 54.39 60.0683 54.5925 59.9483 54.7949C59.9064 54.8643 59.8644 54.9337 59.8211 55.0031C59.6692 55.2446 59.5116 55.4847 59.3366 55.7233C59.3294 55.7319 59.3222 55.7406 59.3164 55.7507C57.1112 58.7483 53.1044 61.5058 48 63.6994C47.9508 63.7211 47.9031 63.7428 47.854 63.763C47.5864 63.8773 47.3088 63.9857 47.0355 64.097C46.7246 64.2228 46.4137 64.3486 46.0927 64.4701C39.3182 67.0628 30.9285 68.691 22.3335 68.691C22.1339 68.6881 21.9329 68.678 21.7305 68.6679ZM77.0878 50.3195C77.0733 50.574 77.0603 50.8314 77.0603 51.0874C77.0603 58.6268 73.5161 64.5872 67.333 67.4416C61.536 70.1153 54.5981 69.6135 49.3303 66.3022C57.989 62.5831 64.0925 57.1186 64.0925 50.6131C64.0925 50.1721 64.0564 49.7383 64.0014 49.3073C63.9957 49.2596 63.9841 49.2119 63.9769 49.1642C62.9415 41.8561 54.1744 35.9984 43.0706 32.6711C46.3617 19.5602 52.6923 10.8481 59.0301 10.8481C68.3206 10.8481 77.1051 29.7372 77.1051 49.718C77.108 49.9176 77.0964 50.1185 77.0878 50.3195Z" fill="#424242"/>
<path d="M12.651 37.8694C8.83496 40.5604 6.51124 44.9172 6.2741 49.8235C6.2365 50.6217 6.85105 51.2998 7.64924 51.3374C7.67238 51.3389 7.69552 51.3389 7.7201 51.3389C8.48648 51.3389 9.12561 50.7359 9.16321 49.9623C9.35697 45.954 11.2353 42.4069 14.3168 40.2336C14.9689 39.7738 15.1265 38.8715 14.6652 38.2179C14.204 37.5657 13.3031 37.411 12.651 37.8694Z" fill="#424242"/>
<path d="M22.6663 34.9326C20.8154 34.9326 19.0542 35.164 17.4317 35.6209C16.6625 35.8364 16.2142 36.636 16.4311 37.4038C16.6104 38.0415 17.1903 38.458 17.8222 38.458C17.9523 38.458 18.0853 38.4406 18.214 38.4045C19.5819 38.0184 21.08 37.8246 22.6663 37.8246C23.4659 37.8246 24.1123 37.1783 24.1123 36.3786C24.1123 35.579 23.4659 34.9326 22.6663 34.9326Z" fill="#424242"/>
<path d="M65.3536 23.2101C66.6824 25.2157 67.738 27.5192 68.4914 30.0569C68.6779 30.6859 69.2534 31.0923 69.8781 31.0923C70.014 31.0923 70.1514 31.0735 70.2888 31.033C71.0537 30.806 71.4918 30.0005 71.2648 29.2356C70.4305 26.4217 69.2505 23.8565 67.7626 21.6123C67.3201 20.9471 66.425 20.762 65.7584 21.2074C65.0947 21.647 64.9125 22.5435 65.3536 23.2101Z" fill="#424242"/>
<path d="M58.7944 13.824C58.0454 13.5594 57.2226 13.9498 56.9536 14.6974C56.6832 15.4479 57.0722 16.275 57.8212 16.5468C57.8386 16.5541 59.5796 17.2033 61.7052 19.0354C61.9785 19.2711 62.3154 19.3868 62.6494 19.3868C63.0543 19.3868 63.4592 19.2176 63.744 18.885C64.266 18.2792 64.1981 17.3667 63.5937 16.8462C61.0256 14.6323 58.8855 13.8573 58.7944 13.824Z" fill="#424242"/>
</g>
<defs>
<clipPath id="clip0_2_856">
<rect width="80" height="80" fill="white"/>
</clipPath>
</defs>
</svg>
