<svg width="92" height="64" viewBox="0 0 92 64" fill="none" xmlns="http://www.w3.org/2000/svg">
<path d="M91.1027 41.0017C90.3482 39.4014 88.609 38.5181 86.8723 38.8556C83.3452 39.5394 79.6826 40.8503 75.9379 42.7657C81.1772 34.3513 85.872 28.2193 85.9568 28.1092C86.5525 27.321 86.888 26.8972 86.891 26.8933C87.9916 25.5085 88.0126 23.5581 86.942 22.1499C85.8711 20.7414 83.9859 20.2397 82.3578 20.9315C78.4004 22.6098 74.4553 25.2002 70.5791 28.6509C74.439 18.9643 77.8367 12.5362 77.8708 12.4716C78.7023 10.9101 78.3687 8.98828 77.0601 7.79789C75.7518 6.6075 73.8067 6.45707 72.3303 7.43182C67.8221 10.4093 63.5963 14.79 59.7437 20.4731C61.5744 11.246 63.4378 5.08784 63.4578 5.02245C63.9754 3.3311 63.3156 1.44877 61.7694 0.58979C59.8343 -0.484832 57.8085 0.446686 57.0569 1.13398C50.6721 6.9716 45.96 19.4258 45.8564 19.7068C45.7611 19.4378 40.5288 6.38328 35.0678 1.12397C33.7929 -0.103935 31.9145 -0.374065 30.415 0.55388C28.9417 1.46539 28.2563 3.27697 28.7484 4.95956C28.7687 5.02888 30.715 11.7475 32.5293 21.7312C28.4634 15.4578 23.9641 10.6669 19.1421 7.48238C17.6661 6.50691 15.7212 6.65788 14.4126 7.84845C13.1041 9.03866 12.7707 10.9607 13.6063 12.5309C13.6759 12.6595 17.2037 19.2275 21.0779 28.861C17.1426 25.3283 13.135 22.687 9.11501 20.9821C7.4862 20.2912 5.60119 20.7922 4.53049 22.2007C3.4598 23.6087 3.48106 25.5591 4.58159 26.9439C4.62858 27.003 11.1403 35.3709 15.4289 42.7152C11.7213 40.8293 8.09381 39.5335 4.60035 38.8562C2.86362 38.5176 1.12386 39.4016 0.369751 41.0018C-0.38454 42.6017 0.0419149 44.5051 1.4056 45.6298C1.46403 45.6782 7.34309 50.555 14.8603 58.343C15.7755 59.2911 16.6888 60.258 17.5939 61.233H9.81178C9.06159 61.233 8.45327 61.8409 8.45327 62.5915C8.45327 63.342 9.06142 63.95 9.81178 63.95H20.6793H20.6795C20.6795 63.95 22.1416 63.9998 22.0684 62.6419C22.008 61.5229 18.4736 58.1749 16.815 56.456C9.18076 48.5456 3.19539 43.5843 3.13483 43.5345C2.72981 43.2002 2.60314 42.6355 2.82718 42.1604C3.05104 41.6857 3.56735 41.4228 4.08296 41.5235C8.5844 42.3963 13.3585 44.3876 18.2742 47.4396C21.3571 52.7203 24.1215 58.005 26.5223 63.2107C26.7444 63.6918 27.2258 64 27.7559 64H31.8797C32.2697 64 32.6408 63.8324 32.8987 63.54C33.1567 63.2475 33.2764 62.858 33.2275 62.4712C30.0624 37.4273 16.1357 11.4956 16.0001 11.2454C15.7534 10.782 15.8525 10.2115 16.2409 9.85816C16.6295 9.50478 17.2112 9.45332 17.6446 9.74936C26.1741 15.5754 31.3666 23.7866 33.7411 29.1433C35.0926 38.4453 36.1846 50.3536 35.5007 62.2057C35.4889 62.3269 35.389 63.8919 36.8345 63.9339L59.2221 63.9489C59.8815 63.9489 60.4459 63.4755 60.56 62.8259C62.4002 52.3675 65.4919 42.3927 68.2778 34.702C73.2507 29.3772 78.3437 25.5846 83.4187 23.4325C83.9016 23.2274 84.4615 23.3762 84.7791 23.7941C85.097 24.2124 85.0909 24.7912 84.7645 25.2019C84.7611 25.2059 69.706 44.3449 62.7697 62.085C62.6053 62.505 62.6526 62.9781 62.9053 63.3517C63.1579 63.7254 63.5793 63.9491 64.0304 63.9491H78.4C79.1504 63.9491 79.7585 63.3411 79.7585 62.5906C79.7585 61.84 79.1504 61.2321 78.4 61.2321H73.8784C74.7829 60.258 75.696 59.2911 76.612 58.3421C84.1072 50.5771 90.0086 45.6769 90.0656 45.6298C91.4304 44.5049 91.857 42.6014 91.1027 41.0017ZM23.3234 34.8889C23.354 34.922 23.386 34.953 23.4188 34.9822C26.289 42.8994 29.0083 52.1181 30.3254 61.2828H28.6229C25.4507 54.4965 21.6776 47.5889 17.4004 40.7381C11.5355 31.3442 6.75567 25.3125 6.7085 25.253C6.38174 24.8419 6.37566 24.2629 6.69332 23.845C7.01115 23.4268 7.57052 23.2783 8.05415 23.4833C13.1725 25.6543 18.31 29.4915 23.3234 34.8889ZM38.2736 61.224C38.9781 46.6837 37.1329 32.2191 35.4333 22.5371C33.5217 11.6469 31.3775 4.2703 31.3562 4.19741C31.206 3.68359 31.4068 3.13547 31.8445 2.86463C32.2566 2.6104 32.7846 2.67668 33.1288 3.02739C37.0743 7.04628 40.4014 12.7031 43.018 19.8401C43.5033 21.1636 43.9699 22.5589 44.408 23.9883C39.6682 39.032 38.9305 57.9337 38.8777 61.2265L38.2736 61.224ZM41.5947 61.2322C41.647 58.0028 41.9472 49.4085 43.6064 39.44C44.8314 32.0799 46.5476 25.4851 48.7074 19.8392C51.4324 12.7152 54.882 7.0745 58.9602 3.0733C59.176 2.86159 59.7139 2.56413 60.3589 2.91179C60.821 3.16084 61.0136 3.7254 60.8598 4.22886C60.8371 4.303 58.5818 11.7503 56.5787 22.5519C54.7844 32.2271 52.8176 46.686 53.4738 61.2324H41.5947V61.2322ZM58.0865 61.2324H56.1944C55.6353 49.1216 56.9363 37.0389 58.4235 27.8144C58.4617 27.7637 65.8865 13.8099 73.8271 9.69933C74.2939 9.45779 74.8428 9.45439 75.2312 9.80796C75.6197 10.1615 75.7184 10.7318 75.4715 11.1956C75.4359 11.2637 63.8493 30.0661 58.0865 61.2324ZM88.3355 43.5352C88.0907 43.7376 82.257 48.5817 74.6568 56.4555C73.1514 58.015 71.6505 59.62 70.1895 61.2324H66.0648C68.0663 56.5638 70.5498 51.8567 73.0771 47.5134V47.5132C78.0355 44.4183 82.8507 42.4029 87.3895 41.523C87.9037 41.4235 88.4211 41.6848 88.6451 42.1603C88.8689 42.6349 88.7423 43.1999 88.3355 43.5352Z" fill="#4C372E"/>
</svg>
