<svg width="91" height="80" viewBox="0 0 91 80" fill="none" xmlns="http://www.w3.org/2000/svg">
<path d="M89.3502 22.017C92.7681 12.348 85.677 1.03053 85.3741 0.557488C85.0763 0.0990099 84.5216 -0.103779 83.9872 0.0583755C83.4666 0.237397 83.1285 0.739576 83.1638 1.28047C83.6341 8.19253 82.4941 13.1568 79.8026 16.0457C77.9852 17.9854 75.4935 18.9606 72.3903 18.9606C70.321 18.9606 68.7217 18.5022 68.7048 18.5022C60.4875 15.1169 52.4595 14.6116 48.3976 14.6116C46.3736 14.6116 45.1599 14.7293 45.1599 14.7347C45.1193 14.7293 43.9048 14.6116 41.88 14.6116C37.8208 14.6116 29.7855 15.1169 21.6667 18.4669C21.6506 18.473 20.0229 18.961 17.8827 18.961C14.7842 18.961 12.2886 17.9854 10.4773 16.0461C7.77743 13.1572 6.64618 8.19292 7.11616 1.28086C7.15143 0.734593 6.80987 0.232413 6.29044 0.0587586C5.76411 -0.111829 5.19599 0.099393 4.90619 0.557871C4.59913 1.03053 -2.48774 12.348 0.928618 22.017C2.36961 26.0966 5.44823 29.235 10.1039 31.3771C5.88256 33.2176 3.52807 34.6248 3.09719 35.5655C2.94424 35.9121 2.9565 36.3062 3.13706 36.6351C3.28694 36.9176 6.90149 43.4889 12.8031 43.4889C13.2937 43.4889 13.7994 43.4383 14.287 43.3443L20.8375 42.2568C22.4545 47.5799 26.4995 59.6989 30.6783 62.8557C29.9749 63.8789 29.1929 65.4598 29.099 67.5229C28.9483 70.7779 30.54 74.1471 33.8359 77.5205C35.4161 79.152 36.4691 80 41.2774 80C41.9371 80 42.6663 79.9896 43.4418 79.9509H46.8213C47.6363 79.9896 48.3723 80 49.0252 80C53.8334 80 54.8769 79.149 56.4666 77.5205C59.7588 74.1471 61.3565 70.7779 61.204 67.5229C61.115 65.4598 60.3284 63.8789 59.6234 62.8557C63.808 59.6989 67.8392 47.5795 69.4612 42.2568L75.9857 43.3382C82.7283 44.6117 87.0018 36.9322 87.1601 36.6324C87.3399 36.2996 87.3472 35.9056 87.2046 35.5655C86.7653 34.6279 84.4208 33.226 80.1979 31.3748C84.8306 29.2411 87.9134 26.1027 89.3502 22.017ZM76.6163 30.2164C76.1402 30.3785 75.8143 30.8102 75.799 31.3185C75.7867 31.818 76.0861 32.268 76.5515 32.4647C79.6842 33.7343 83.3048 35.4126 84.5798 36.2414C83.569 37.7609 80.9592 41.0903 77.4853 41.0903C77.1384 41.0903 76.7896 41.055 76.3947 40.9872L68.8011 39.7137C68.2218 39.6263 67.6257 39.9828 67.4582 40.5601C64.5226 50.5351 59.891 61.2181 57.6772 61.2181C57.1716 61.2181 56.7246 61.5298 56.554 62.0032C56.3758 62.4701 56.5111 63.0014 56.8921 63.3257C56.9136 63.3426 58.6881 64.9354 58.8123 67.6287C58.9231 70.1987 57.5603 72.9657 54.7473 75.8472C53.3481 77.2852 53.002 77.7693 46.8596 77.5524H43.3961C37.5663 77.7647 36.9433 77.276 35.5537 75.8472C32.7614 72.9795 31.3983 70.2263 31.4903 67.6652C31.5961 64.9511 33.3391 63.3871 33.4081 63.3257C33.7899 63.0014 33.9249 62.4701 33.7466 62.0032C33.5695 61.5359 33.1268 61.2181 32.6246 61.2181C30.41 61.2181 25.7785 50.5351 22.8413 40.5601C22.6707 39.9828 22.0888 39.6232 21.4996 39.7137L13.8707 40.9906C9.86205 41.7538 6.87159 37.9511 5.73727 36.2705C7.09929 35.3681 10.6571 33.7167 13.7411 32.4647C14.2057 32.2765 14.5131 31.8149 14.4936 31.3185C14.476 30.8102 14.1574 30.3785 13.6778 30.2164C8.1899 28.3652 4.66161 25.3441 3.20568 21.2323C1.39975 16.1304 3.05272 10.2645 4.6988 6.33179C4.99397 11.3191 6.35024 15.1249 8.74192 17.6906C10.9933 20.0946 14.1628 21.3677 17.9073 21.3677C20.4258 21.3677 22.3215 20.7915 22.4959 20.724C30.3353 17.494 38.0117 17.0117 41.8938 17.0117C43.7749 17.0117 44.9004 17.1237 45.0522 17.1355C45.0959 17.1355 45.337 17.1355 45.3765 17.1302C45.4064 17.124 46.5319 17.0117 48.4137 17.0117C52.2924 17.0117 59.9692 17.494 67.9098 20.7624C67.9865 20.7915 69.876 21.3677 72.4018 21.3677C76.1425 21.3677 79.3131 20.095 81.5633 17.6876C83.9615 15.1222 85.3132 11.3191 85.6145 6.33179C87.2598 10.2645 88.9112 16.1308 87.1015 21.2293C85.6321 25.3441 82.1111 28.3652 76.6163 30.2164Z" fill="#4C372E"/>
<path d="M40.143 67.9209C41.3172 67.9209 42.2675 68.8704 42.2675 70.0454C42.2675 71.2192 41.3172 72.1699 40.143 72.1699C38.9708 72.1699 38.0186 71.2192 38.0186 70.0454C38.0186 68.8701 38.9712 67.9209 40.143 67.9209Z" fill="#4C372E"/>
<path d="M50.1357 67.9209C51.3121 67.9209 52.2632 68.8704 52.2632 70.0454C52.2632 71.2192 51.3125 72.1699 50.1357 72.1699C48.9634 72.1699 48.0127 71.2192 48.0127 70.0454C48.0127 68.8701 48.9634 67.9209 50.1357 67.9209Z" fill="#4C372E"/>
</svg>
