<svg width="102" height="64" viewBox="0 0 102 64" fill="none" xmlns="http://www.w3.org/2000/svg">
<path d="M100.661 41.0275L93.1396 32.0002L100.661 22.9729C101.081 22.471 101.17 21.7721 100.894 21.181C100.616 20.5899 100.021 20.211 99.3679 20.211H77.2494L75.7723 9.86842C75.6544 9.0381 74.9437 8.42173 74.1049 8.42173H61.2411C59.2571 6.76781 51.6041 0.391523 51.6041 0.391523C50.9792 -0.130508 50.0731 -0.130508 49.4483 0.391523L39.8113 8.42173H26.9474C26.1086 8.42173 25.3997 9.0381 25.2801 9.86684L23.803 20.2111H1.68507C1.0316 20.2111 0.437133 20.5901 0.159242 21.1812C-0.118648 21.7741 -0.0276625 22.473 0.391739 22.9731L7.91333 32.0004L0.391739 41.0277C-0.0276625 41.5296 -0.116872 42.2284 0.159242 42.8195C0.437133 43.4124 1.0316 43.7896 1.68507 43.7896H23.8034C24.253 46.9307 25.2821 54.1339 25.2821 54.1339C25.3999 54.9642 26.1106 55.579 26.9476 55.579H39.8115L49.4485 63.6092C49.7617 63.8703 50.144 64 50.5263 64C50.9086 64 51.2927 63.8703 51.6041 63.6092L61.2393 55.579C63.8565 55.579 74.1081 55.5857 74.1047 55.579C74.9435 55.579 75.6525 54.9626 75.7721 54.1339C75.7721 54.1339 76.8011 46.9307 77.2507 43.7896H99.3675C100.021 43.7896 100.615 43.4107 100.893 42.8195C101.172 42.2265 101.081 41.5276 100.661 41.0275ZM5.28087 40.4212L11.3996 33.0782C11.92 32.4533 11.92 31.5456 11.3996 30.9224L5.28087 23.5792H21.6679L15.5492 30.9222C15.0287 31.547 15.0287 32.4547 15.5492 33.078L21.6679 40.421H5.28087V40.4212ZM74.4975 41.0257C74.415 41.125 74.3426 41.2345 74.2853 41.3508C74.1675 41.5866 74.1624 41.5967 72.6466 52.2104C60.2359 52.2104 60.224 52.2171 59.8788 52.389C59.7626 52.448 59.6532 52.5187 59.5538 52.6012L50.5265 60.1228L41.4992 52.6012C41.1978 52.3485 40.8153 52.2104 40.4214 52.2104H28.4081C26.8924 41.5967 26.8872 41.5866 26.7694 41.3508C26.7104 41.2345 26.6398 41.1252 26.5573 41.0257L19.0357 32.0002L26.5573 22.9729C26.7578 22.7321 26.8874 22.4424 26.9311 22.1325L28.4081 11.79H40.4214C40.8155 11.79 41.196 11.6518 41.4992 11.3992L50.5265 3.87759C59.702 11.5237 59.7087 11.5271 59.8788 11.6131C60.1129 11.7294 60.3707 11.79 60.6316 11.79H72.6448L74.1219 22.1343C74.1657 22.4441 74.2954 22.7339 74.4957 22.9747L82.0173 32.0002L74.4975 41.0257ZM79.3848 40.4212L85.5036 33.0782C86.024 32.4533 86.024 31.5456 85.5036 30.9224L79.3848 23.5794H95.7719L89.6532 30.9224C89.1327 31.5472 89.1327 32.4549 89.6532 33.0782L95.7719 40.4212H79.3848Z" fill="#4C372E"/>
</svg>
