<svg width="80" height="80" viewBox="0 0 80 80" fill="none" xmlns="http://www.w3.org/2000/svg">
<g clip-path="url(#clip0_2_834)">
<path d="M78.4433 14.8742L78.8109 14.604C80.1086 13.6502 80.3873 11.8251 79.4334 10.5274C78.4797 9.22947 76.6545 8.95087 75.3569 9.90494L74.9892 10.1751C74.7295 10.366 74.5125 10.5931 74.3363 10.8424C71.4305 7.87337 67.6611 5.92994 63.4816 5.28916C58.3791 4.50744 53.278 5.75822 49.1177 8.81291L31.9145 21.4417C28.9691 20.9362 25.6792 20.6679 22.2775 20.6679C16.8384 20.6679 11.6402 21.3534 7.7225 22.5985C1.3775 24.6148 0 27.5773 0 29.7074V40.0207C0 42.1509 1.3775 45.1134 7.72281 47.1293C10.3359 47.9598 13.5014 48.5396 16.9319 48.8348C11.4861 50.832 10.303 53.5781 10.303 55.5854V65.8985C10.303 68.0287 11.6564 70.9912 18.0016 73.0073C21.9191 74.2521 27.0828 74.9377 32.5216 74.9377C37.9603 74.9377 43.0719 74.2523 46.9895 73.0073C53.3347 70.9912 54.6252 68.0288 54.6252 65.8985V55.5854C54.6252 54.8402 54.5078 53.9931 54.0242 53.1202L71.9647 39.9676C79.7969 34.2176 82.0425 23.6351 77.5945 15.302C77.8875 15.2084 78.182 15.0665 78.4433 14.8742ZM22.2778 26.5002C23.2044 26.5002 24.0927 26.521 24.9434 26.5595L24.9186 26.5777C24.9155 26.5801 24.913 26.5826 24.9098 26.5849C24.8859 26.6023 24.8619 26.6187 24.8381 26.6362C22.5498 28.316 20.6978 30.431 19.363 32.8423C11.9341 32.4718 7.46578 30.7454 6.18031 29.7073C7.62734 28.5398 13.0975 26.5002 22.2778 26.5002ZM16.9103 42.9815C10.3544 42.3499 6.60953 40.659 5.83188 39.7768V36.1468C6.415 36.379 7.05203 36.6032 7.72281 36.8163C10.4181 37.6729 13.7209 38.2646 17.2764 38.5504C17.2294 38.7949 17.1969 39.0404 17.1591 39.2881C16.9683 40.5326 16.8627 41.7677 16.9103 42.9815ZM32.5325 52.3779C41.7128 52.3779 47.183 54.4174 48.63 55.5852C47.1842 56.7527 41.7145 58.7927 32.5325 58.7927C23.3505 58.7927 17.8806 56.7527 16.435 55.5852C17.882 54.4176 23.3522 52.3779 32.5325 52.3779ZM48.7934 65.6548C48.0158 66.7531 42.3233 69.1059 32.4642 69.1059C22.6052 69.1059 17.1069 66.7529 16.135 65.6548V62.0248C16.7181 62.257 17.3311 62.4812 18.0017 62.6943C21.9192 63.9391 27.083 64.6249 32.5217 64.6249C37.9605 64.6249 43.072 63.9395 46.9897 62.6943C47.6603 62.4812 48.4047 62.257 48.7934 62.0248V65.6548ZM49.6177 44.2631C49.3647 45.9121 48.8198 47.4448 48.0469 48.8199C47.7259 48.7029 47.3925 48.5881 47.0414 48.4765C43.1239 47.2317 37.9711 46.546 32.532 46.546C29.4491 46.546 26.4586 46.7667 23.7323 47.1842C22.8748 45.0287 22.5584 42.6263 22.9347 40.172C23.4811 36.6085 25.3825 33.4709 28.2887 31.3374C30.6298 29.6188 33.3967 28.7176 36.2472 28.7176C36.9353 28.7176 37.6287 28.7702 38.3217 28.8763C45.6781 30.0042 50.7452 36.9068 49.6173 44.2632H49.6177V44.2631ZM68.537 35.2665L55.4172 44.8976C56.8697 34.5356 49.7653 24.8631 39.4414 23.1509L52.5687 13.5143C55.4736 11.3813 59.0347 10.5076 62.5977 11.054C66.1598 11.6004 69.2961 13.5012 71.4289 16.4065C75.8314 22.4032 74.5339 30.8638 68.537 35.2665Z" fill="#424242"/>
<path d="M28.4633 43.7962C29.6832 43.7962 30.6722 42.8073 30.6722 41.5873C30.6722 40.3674 29.6832 39.3784 28.4633 39.3784C27.2434 39.3784 26.2544 40.3674 26.2544 41.5873C26.2544 42.8073 27.2434 43.7962 28.4633 43.7962Z" fill="#424242"/>
<path d="M34.3515 37.0741C35.5714 37.0741 36.5604 36.0851 36.5604 34.8652C36.5604 33.6452 35.5714 32.6562 34.3515 32.6562C33.1315 32.6562 32.1426 33.6452 32.1426 34.8652C32.1426 36.0851 33.1315 37.0741 34.3515 37.0741Z" fill="#424242"/>
<path d="M44.1279 47.2C45.3478 47.2 46.3368 46.2111 46.3368 44.9911C46.3368 43.7712 45.3478 42.7822 44.1279 42.7822C42.9079 42.7822 41.9189 43.7712 41.9189 44.9911C41.9189 46.2111 42.9079 47.2 44.1279 47.2Z" fill="#424242"/>
<path d="M42.2538 39.2821C43.4738 39.2821 44.4627 38.2931 44.4627 37.0732C44.4627 35.8532 43.4738 34.8643 42.2538 34.8643C41.0339 34.8643 40.0449 35.8532 40.0449 37.0732C40.0449 38.2931 41.0339 39.2821 42.2538 39.2821Z" fill="#424242"/>
<path d="M35.7572 44.9915C36.9772 44.9915 37.9662 44.0026 37.9662 42.7826C37.9662 41.5627 36.9772 40.5737 35.7572 40.5737C34.5373 40.5737 33.5483 41.5627 33.5483 42.7826C33.5483 44.0026 34.5373 44.9915 35.7572 44.9915Z" fill="#424242"/>
</g>
<defs>
<clipPath id="clip0_2_834">
<rect width="80" height="80" fill="white"/>
</clipPath>
</defs>
</svg>
