<svg width="80" height="80" viewBox="0 0 80 80" fill="none" xmlns="http://www.w3.org/2000/svg">
<path d="M73.9136 16.6923L73.9133 16.6921C71.484 14.6886 69.7048 13.7075 68.279 13.3802C66.9555 13.0763 65.8146 13.3079 64.5197 14.1002L63.7078 14.597L62.9135 14.0745L62.9133 14.0744L62.913 14.0742L62.9126 14.0739L62.9125 14.0739L62.9048 14.0688L62.8671 14.0446C62.8323 14.0223 62.7787 13.9884 62.7084 13.9449C62.5675 13.8578 62.3606 13.7329 62.1041 13.5867C61.5878 13.2924 60.8868 12.9215 60.1299 12.6002C59.3852 12.284 58.6469 12.0419 58.0096 11.9451C58.6435 12.7763 59.4251 13.6009 59.6689 13.8205L60.3726 14.4545L60.1027 15.3624C59.7317 16.6105 58.7612 17.8438 57.8123 18.7923C56.8549 19.7493 55.7087 20.6248 54.7037 21.1176C48.3551 24.7405 40.7922 25.1122 34.7049 24.5496C28.5937 23.9849 23.7465 22.4571 22.6486 22.0551C18.024 20.4116 14.19 20.4517 11.1469 21.4685C8.09751 22.4873 5.71812 24.528 4.07443 27.0979L73.9136 16.6923ZM73.9136 16.6923C76.4411 18.7756 77.7701 20.0475 78.3076 20.884C78.4031 21.0327 78.4517 21.1349 78.4761 21.1978C78.4452 21.228 78.3988 21.2688 78.3306 21.3199L78.0329 21.5435L77.8743 21.8803C77.7049 22.2399 77.5768 22.4939 77.4716 22.6787C77.4435 22.7281 77.4189 22.7692 77.3976 22.8034C77.3291 22.7822 77.2501 22.7563 77.1527 22.7244C77.1282 22.7164 77.1026 22.708 77.0756 22.6992C76.8869 22.6375 76.6353 22.5564 76.3807 22.4971C76.1425 22.4416 75.7811 22.3747 75.392 22.4131L75.3862 22.4137C75.1142 22.4415 74.8706 22.527 74.7356 22.5771C74.5768 22.6361 74.4089 22.7086 74.259 22.7745C74.198 22.8013 74.1374 22.8282 74.0768 22.855C73.8173 22.9701 73.5585 23.0848 73.2723 23.1945C72.5372 23.4762 71.9294 23.5957 71.4773 23.5066L71.4218 23.4957L71.3656 23.489C70.7785 23.4187 70.1268 23.4489 69.4749 23.7182C68.8175 23.9898 68.2824 24.4538 67.8495 25.0521C67.0323 26.1813 66.4796 27.9313 66.0464 30.3591L66.0463 30.36C65.6821 32.4092 63.7973 36.2328 61.1378 39.5953C59.8278 41.2517 58.3888 42.7188 56.9463 43.7591C55.4864 44.812 54.1528 45.3351 53.02 45.3351C51.0966 45.3351 49.6093 45.9696 48.6275 47.1721C47.7002 48.3079 47.4027 49.7377 47.3379 50.9899C47.272 52.2616 47.4371 53.5457 47.6096 54.5611C47.6839 54.9984 47.7628 55.4033 47.828 55.7379C47.839 55.7943 47.8496 55.8487 47.8598 55.9008C47.9367 56.2977 47.9727 56.5061 47.9812 56.605C48.0246 57.1351 48.2756 58.2982 48.5714 59.5772C48.8817 60.9189 49.2818 62.553 49.6762 64.131C50.0706 65.7086 50.4607 67.2362 50.7523 68.3698M73.9136 16.6923L50.7523 68.3698M50.7523 68.3698H48.6061C48.4875 67.9038 48.3369 67.3115 48.163 66.627C47.7233 64.8961 47.1351 62.5761 46.5407 60.2195C45.9462 57.8624 45.3461 55.4706 44.8825 53.5952C44.6506 52.6572 44.4535 51.8512 44.3087 51.2444C44.2361 50.9407 44.1775 50.6904 44.1344 50.5001C44.1129 50.4048 44.0959 50.3277 44.0834 50.2682C44.0771 50.2386 44.0723 50.2152 44.0688 50.1974C44.0652 50.1787 44.0638 50.1709 44.0639 50.171L44.0638 50.1705C43.8902 49.1349 43.237 48.063 41.9414 47.5111C40.7159 46.9891 39.137 47.0268 37.2301 47.6024L37.2299 47.6025C34.1199 48.5419 27.689 48.8676 20.2713 45.8105C19.3737 45.3162 18.4522 45.2574 17.5977 45.4929C16.7818 45.7177 16.0864 46.1933 15.5415 46.6293C15.1511 46.9418 14.7469 47.3124 14.3969 47.6334C14.2675 47.752 14.1455 47.8638 14.0344 47.9634C13.5652 48.384 13.2324 48.6418 12.9706 48.7728L12.9704 48.7728C12.4267 49.0449 11.7572 49.2158 10.9456 49.4229C10.6467 49.4992 10.3286 49.5804 9.99033 49.6734C9.43598 49.8257 8.80613 50.0207 8.26499 50.3067C7.73893 50.5846 7.05251 51.0762 6.76748 51.9439C6.11765 53.9212 6.01381 56.9523 6.49316 60.2146C6.87432 62.8086 7.6396 65.6578 8.88833 68.3988C8.48931 68.3998 8.16522 68.3981 7.90566 68.3951C7.6991 67.9251 7.42071 67.2772 7.10253 66.4993C6.41469 64.8176 5.54719 62.5435 4.81705 60.153C4.08227 57.7473 3.50934 55.2961 3.37178 53.2397C3.22675 51.0718 3.59968 49.8365 4.16615 49.3036L4.19337 49.278L4.21929 49.2511C4.78888 48.6592 5.17544 47.9893 5.31592 47.2347C5.45513 46.4868 5.32543 45.8017 5.11334 45.2229C4.90698 44.6599 4.60112 44.141 4.32158 43.7017C4.16837 43.4609 4.0444 43.2746 3.92729 43.0986C3.78687 42.8876 3.65628 42.6913 3.4969 42.4337L3.49676 42.4335C0.740517 37.9797 0.750301 32.2975 4.07429 27.0981L50.7523 68.3698ZM57.3291 10.878C57.3291 10.878 57.3297 10.8796 57.3306 10.8828C57.3295 10.8796 57.329 10.878 57.3291 10.878ZM78.5321 21.1333C78.5323 21.1333 78.531 21.1357 78.5276 21.1405C78.5301 21.1357 78.5318 21.1333 78.5321 21.1333ZM77.6046 22.8603C77.6116 22.8612 77.6154 22.862 77.6154 22.8621C77.6155 22.8622 77.612 22.8617 77.6046 22.8603Z" stroke="#424242" stroke-width="3"/>
</svg>
